<svg xmlns="http://www.w3.org/2000/svg" viewBox="0 0 21.74 13.7"><defs><style>.cls-1{fill:none;}.cls-1,.cls-2,.cls-3{stroke:#000;stroke-miterlimit:10;}.cls-2{fill:#fff;}.cls-2,.cls-3{stroke-width:0.5px;}.cls-3{fill:#020202;}</style></defs><title>Fichier 3</title><g id="Calque_2" data-name="Calque 2"><g id="effrayé"><path class="cls-1" d="M7.37,1.18"/><path class="cls-1" d="M5,4.23"/><ellipse class="cls-2" cx="15.7" cy="6.51" rx="2.71" ry="2.64"/><ellipse class="cls-2" cx="4.64" cy="6.85" rx="2.9" ry="2.75"/><circle class="cls-3" cx="14.04" cy="5.33" r="0.46"/><circle class="cls-3" cx="6.51" cy="5.5" r="0.46"/><path d="M11.8,1.62A.73.73,0,0,1,11.63,1,1.17,1.17,0,0,1,12,.4a1.81,1.81,0,0,1,.56-.32A1.71,1.71,0,0,1,13.16,0V0a2.9,2.9,0,0,0-1,.56.92.92,0,0,0-.32,1Z"/><path class="cls-1" d="M12.28.44"/><path d="M2.23,13.7a9.37,9.37,0,0,1,3.4-2,12.05,12.05,0,0,1,3.94-.64,13.86,13.86,0,0,1,3.92.71c.64.19,1.23.51,1.84.75s1.15.65,1.71,1c-.61-.24-1.2-.53-1.81-.77s-1.22-.47-1.85-.61a15,15,0,0,0-3.81-.58,12.81,12.81,0,0,0-3.81.51A11.84,11.84,0,0,0,2.23,13.7Z"/><path d="M6.51,11.54a27,27,0,0,1,2.91-.18,18,18,0,0,1,2.91.18A57.5,57.5,0,0,1,6.51,11.54Z"/><path d="M8.77,13.3a2.12,2.12,0,0,1,1.51-.61,1.36,1.36,0,0,1,.79.32,1.57,1.57,0,0,1,.45.69,1.73,1.73,0,0,0-1.26-.76,2.19,2.19,0,0,0-.75.09A5,5,0,0,0,8.77,13.3Z"/><path d="M7.42.85a3.17,3.17,0,0,1-1,2.2A7.53,7.53,0,0,1,4.5,4.45a9.58,9.58,0,0,1-2.14.82A7.08,7.08,0,0,1,0,5.48l0-.09A31.72,31.72,0,0,0,4,3.57,13.62,13.62,0,0,0,5.9,2.42,4.16,4.16,0,0,0,7.33.82Z"/><path d="M13.23.78c1.29,1.14,2.64,2.25,4,3.28.7.52,1.41,1,2.15,1.47a11.32,11.32,0,0,0,2.33,1.16,11.41,11.41,0,0,1-2.42-1c-.78-.41-1.53-.85-2.27-1.32-1.48-.94-2.9-1.95-4.3-3Z"/></g></g></svg>